mtllib SciFiBridge.mtl
o SciFiBridge
usemtl atlas
v -5.00000 -0.05000 -4.00000
v 5.00000 -0.05000 -4.00000
v 5.00000 0.05000 -4.00000
v -5.00000 0.05000 -4.00000
v -5.00000 -0.05000 4.00000
v 5.00000 -0.05000 4.00000
v 5.00000 0.05000 4.00000
v -5.00000 0.05000 4.00000
v -0.55000 0.05000 -3.70000
v 0.55000 0.05000 -3.70000
v 0.55000 0.08000 -3.70000
v -0.55000 0.08000 -3.70000
v -0.55000 0.05000 3.70000
v 0.55000 0.05000 3.70000
v 0.55000 0.08000 3.70000
v -0.55000 0.08000 3.70000
v -0.70000 0.06000 -3.70000
v -0.55000 0.06000 -3.70000
v -0.55000 0.10000 -3.70000
v -0.70000 0.10000 -3.70000
v -0.70000 0.06000 3.70000
v -0.55000 0.06000 3.70000
v -0.55000 0.10000 3.70000
v -0.70000 0.10000 3.70000
v 0.55000 0.06000 -3.70000
v 0.70000 0.06000 -3.70000
v 0.70000 0.10000 -3.70000
v 0.55000 0.10000 -3.70000
v 0.55000 0.06000 3.70000
v 0.70000 0.06000 3.70000
v 0.70000 0.10000 3.70000
v 0.55000 0.10000 3.70000
v -5.00000 3.40000 -4.00000
v 5.00000 3.40000 -4.00000
v 5.00000 3.55000 -4.00000
v -5.00000 3.55000 -4.00000
v -5.00000 3.40000 4.00000
v 5.00000 3.40000 4.00000
v 5.00000 3.55000 4.00000
v -5.00000 3.55000 4.00000
v -5.00000 0.00000 3.85000
v 5.00000 0.00000 3.85000
v 5.00000 3.50000 3.85000
v -5.00000 3.50000 3.85000
v -5.00000 0.00000 4.00000
v 5.00000 0.00000 4.00000
v 5.00000 3.50000 4.00000
v -5.00000 3.50000 4.00000
v -5.00000 0.00000 -4.00000
v 5.00000 0.00000 -4.00000
v 5.00000 3.50000 -4.00000
v -5.00000 3.50000 -4.00000
v -5.00000 0.00000 -3.85000
v 5.00000 0.00000 -3.85000
v 5.00000 3.50000 -3.85000
v -5.00000 3.50000 -3.85000
v 4.85000 0.00000 -4.00000
v 5.00000 0.00000 -4.00000
v 5.00000 3.50000 -4.00000
v 4.85000 3.50000 -4.00000
v 4.85000 0.00000 4.00000
v 5.00000 0.00000 4.00000
v 5.00000 3.50000 4.00000
v 4.85000 3.50000 4.00000
v -5.00000 0.00000 -4.00000
v -4.85000 0.00000 -4.00000
v -4.85000 3.50000 -4.00000
v -5.00000 3.50000 -4.00000
v -5.00000 0.00000 4.00000
v -4.85000 0.00000 4.00000
v -4.85000 3.50000 4.00000
v -5.00000 3.50000 4.00000
v -1.60000 1.20000 3.83000
v 1.60000 1.20000 3.83000
v 1.60000 2.60000 3.83000
v -1.60000 2.60000 3.83000
v -1.60000 1.20000 3.89000
v 1.60000 1.20000 3.89000
v 1.60000 2.60000 3.89000
v -1.60000 2.60000 3.89000
v -1.75000 1.10000 3.84000
v 1.75000 1.10000 3.84000
v 1.75000 2.70000 3.84000
v -1.75000 2.70000 3.84000
v -1.75000 1.10000 3.87000
v 1.75000 1.10000 3.87000
v 1.75000 2.70000 3.87000
v -1.75000 2.70000 3.87000
v -3.50000 0.20000 3.73000
v -3.25000 0.20000 3.73000
v -3.25000 3.30000 3.73000
v -3.50000 3.30000 3.73000
v -3.50000 0.20000 3.85000
v -3.25000 0.20000 3.85000
v -3.25000 3.30000 3.85000
v -3.50000 3.30000 3.85000
v -3.42000 0.40000 3.71000
v -3.36000 0.40000 3.71000
v -3.36000 3.10000 3.71000
v -3.42000 3.10000 3.71000
v -3.42000 0.40000 3.73000
v -3.36000 0.40000 3.73000
v -3.36000 3.10000 3.73000
v -3.42000 3.10000 3.73000
v -3.50000 3.10000 -3.70000
v -3.30000 3.10000 -3.70000
v -3.30000 3.40000 -3.70000
v -3.50000 3.40000 -3.70000
v -3.50000 3.10000 3.70000
v -3.30000 3.10000 3.70000
v -3.30000 3.40000 3.70000
v -3.50000 3.40000 3.70000
v -3.10000 2.95000 -2.00000
v -2.95000 2.95000 -2.00000
v -2.95000 3.10000 -2.00000
v -3.10000 3.10000 -2.00000
v -3.10000 2.95000 2.00000
v -2.95000 2.95000 2.00000
v -2.95000 3.10000 2.00000
v -3.10000 3.10000 2.00000
v -3.20000 3.25000 -0.70000
v -2.30000 3.25000 -0.70000
v -2.30000 3.38000 -0.70000
v -3.20000 3.38000 -0.70000
v -3.20000 3.25000 0.70000
v -2.30000 3.25000 0.70000
v -2.30000 3.38000 0.70000
v -3.20000 3.38000 0.70000
v -3.00000 1.50000 3.80000
v -2.30000 1.50000 3.80000
v -2.30000 1.95000 3.80000
v -3.00000 1.95000 3.80000
v -3.00000 1.50000 3.85000
v -2.30000 1.50000 3.85000
v -2.30000 1.95000 3.85000
v -3.00000 1.95000 3.85000
v -1.50000 0.20000 3.73000
v -1.25000 0.20000 3.73000
v -1.25000 3.30000 3.73000
v -1.50000 3.30000 3.73000
v -1.50000 0.20000 3.85000
v -1.25000 0.20000 3.85000
v -1.25000 3.30000 3.85000
v -1.50000 3.30000 3.85000
v -1.42000 0.40000 3.71000
v -1.36000 0.40000 3.71000
v -1.36000 3.10000 3.71000
v -1.42000 3.10000 3.71000
v -1.42000 0.40000 3.73000
v -1.36000 0.40000 3.73000
v -1.36000 3.10000 3.73000
v -1.42000 3.10000 3.73000
v -1.50000 3.10000 -3.70000
v -1.30000 3.10000 -3.70000
v -1.30000 3.40000 -3.70000
v -1.50000 3.40000 -3.70000
v -1.50000 3.10000 3.70000
v -1.30000 3.10000 3.70000
v -1.30000 3.40000 3.70000
v -1.50000 3.40000 3.70000
v -1.10000 2.95000 -2.00000
v -0.95000 2.95000 -2.00000
v -0.95000 3.10000 -2.00000
v -1.10000 3.10000 -2.00000
v -1.10000 2.95000 2.00000
v -0.95000 2.95000 2.00000
v -0.95000 3.10000 2.00000
v -1.10000 3.10000 2.00000
v -1.20000 3.25000 -0.70000
v -0.30000 3.25000 -0.70000
v -0.30000 3.38000 -0.70000
v -1.20000 3.38000 -0.70000
v -1.20000 3.25000 0.70000
v -0.30000 3.25000 0.70000
v -0.30000 3.38000 0.70000
v -1.20000 3.38000 0.70000
v -1.00000 1.50000 3.80000
v -0.30000 1.50000 3.80000
v -0.30000 1.95000 3.80000
v -1.00000 1.95000 3.80000
v -1.00000 1.50000 3.85000
v -0.30000 1.50000 3.85000
v -0.30000 1.95000 3.85000
v -1.00000 1.95000 3.85000
v 0.50000 0.20000 3.73000
v 0.75000 0.20000 3.73000
v 0.75000 3.30000 3.73000
v 0.50000 3.30000 3.73000
v 0.50000 0.20000 3.85000
v 0.75000 0.20000 3.85000
v 0.75000 3.30000 3.85000
v 0.50000 3.30000 3.85000
v 0.58000 0.40000 3.71000
v 0.64000 0.40000 3.71000
v 0.64000 3.10000 3.71000
v 0.58000 3.10000 3.71000
v 0.58000 0.40000 3.73000
v 0.64000 0.40000 3.73000
v 0.64000 3.10000 3.73000
v 0.58000 3.10000 3.73000
v 0.50000 3.10000 -3.70000
v 0.70000 3.10000 -3.70000
v 0.70000 3.40000 -3.70000
v 0.50000 3.40000 -3.70000
v 0.50000 3.10000 3.70000
v 0.70000 3.10000 3.70000
v 0.70000 3.40000 3.70000
v 0.50000 3.40000 3.70000
v 0.90000 2.95000 -2.00000
v 1.05000 2.95000 -2.00000
v 1.05000 3.10000 -2.00000
v 0.90000 3.10000 -2.00000
v 0.90000 2.95000 2.00000
v 1.05000 2.95000 2.00000
v 1.05000 3.10000 2.00000
v 0.90000 3.10000 2.00000
v 0.80000 3.25000 -0.70000
v 1.70000 3.25000 -0.70000
v 1.70000 3.38000 -0.70000
v 0.80000 3.38000 -0.70000
v 0.80000 3.25000 0.70000
v 1.70000 3.25000 0.70000
v 1.70000 3.38000 0.70000
v 0.80000 3.38000 0.70000
v 1.00000 1.50000 3.80000
v 1.70000 1.50000 3.80000
v 1.70000 1.95000 3.80000
v 1.00000 1.95000 3.80000
v 1.00000 1.50000 3.85000
v 1.70000 1.50000 3.85000
v 1.70000 1.95000 3.85000
v 1.00000 1.95000 3.85000
v 2.50000 0.20000 3.73000
v 2.75000 0.20000 3.73000
v 2.75000 3.30000 3.73000
v 2.50000 3.30000 3.73000
v 2.50000 0.20000 3.85000
v 2.75000 0.20000 3.85000
v 2.75000 3.30000 3.85000
v 2.50000 3.30000 3.85000
v 2.58000 0.40000 3.71000
v 2.64000 0.40000 3.71000
v 2.64000 3.10000 3.71000
v 2.58000 3.10000 3.71000
v 2.58000 0.40000 3.73000
v 2.64000 0.40000 3.73000
v 2.64000 3.10000 3.73000
v 2.58000 3.10000 3.73000
v 2.50000 3.10000 -3.70000
v 2.70000 3.10000 -3.70000
v 2.70000 3.40000 -3.70000
v 2.50000 3.40000 -3.70000
v 2.50000 3.10000 3.70000
v 2.70000 3.10000 3.70000
v 2.70000 3.40000 3.70000
v 2.50000 3.40000 3.70000
v 2.90000 2.95000 -2.00000
v 3.05000 2.95000 -2.00000
v 3.05000 3.10000 -2.00000
v 2.90000 3.10000 -2.00000
v 2.90000 2.95000 2.00000
v 3.05000 2.95000 2.00000
v 3.05000 3.10000 2.00000
v 2.90000 3.10000 2.00000
v 2.80000 3.25000 -0.70000
v 3.70000 3.25000 -0.70000
v 3.70000 3.38000 -0.70000
v 2.80000 3.38000 -0.70000
v 2.80000 3.25000 0.70000
v 3.70000 3.25000 0.70000
v 3.70000 3.38000 0.70000
v 2.80000 3.38000 0.70000
v 3.00000 1.50000 3.80000
v 3.70000 1.50000 3.80000
v 3.70000 1.95000 3.80000
v 3.00000 1.95000 3.80000
v 3.00000 1.50000 3.85000
v 3.70000 1.50000 3.85000
v 3.70000 1.95000 3.85000
v 3.00000 1.95000 3.85000
v -4.85000 0.00000 -2.20000
v -3.95000 0.00000 -2.20000
v -3.95000 1.05000 -2.20000
v -4.85000 1.05000 -2.20000
v -4.85000 0.00000 2.20000
v -3.95000 0.00000 2.20000
v -3.95000 1.05000 2.20000
v -4.85000 1.05000 2.20000
v -4.85000 1.05000 -2.10000
v -4.00000 1.05000 -2.10000
v -4.00000 1.12000 -2.10000
v -4.85000 1.12000 -2.10000
v -4.85000 1.05000 2.10000
v -4.00000 1.05000 2.10000
v -4.00000 1.12000 2.10000
v -4.85000 1.12000 2.10000
v -4.80000 1.15000 -0.70000
v -4.70000 1.15000 -0.70000
v -4.70000 2.10000 -0.70000
v -4.80000 2.10000 -0.70000
v -4.80000 1.15000 0.70000
v -4.70000 1.15000 0.70000
v -4.70000 2.10000 0.70000
v -4.80000 2.10000 0.70000
v -4.65000 0.55000 -1.80000
v -4.50000 0.55000 -1.80000
v -4.50000 0.68000 -1.80000
v -4.65000 0.68000 -1.80000
v -4.65000 0.55000 -1.68000
v -4.50000 0.55000 -1.68000
v -4.50000 0.68000 -1.68000
v -4.65000 0.68000 -1.68000
v -4.40000 0.70000 -1.80000
v -4.30000 0.70000 -1.80000
v -4.30000 0.82000 -1.80000
v -4.40000 0.82000 -1.80000
v -4.40000 0.70000 -1.70000
v -4.30000 0.70000 -1.70000
v -4.30000 0.82000 -1.70000
v -4.40000 0.82000 -1.70000
v -4.65000 0.55000 -1.20000
v -4.50000 0.55000 -1.20000
v -4.50000 0.68000 -1.20000
v -4.65000 0.68000 -1.20000
v -4.65000 0.55000 -1.08000
v -4.50000 0.55000 -1.08000
v -4.50000 0.68000 -1.08000
v -4.65000 0.68000 -1.08000
v -4.40000 0.70000 -1.20000
v -4.30000 0.70000 -1.20000
v -4.30000 0.82000 -1.20000
v -4.40000 0.82000 -1.20000
v -4.40000 0.70000 -1.10000
v -4.30000 0.70000 -1.10000
v -4.30000 0.82000 -1.10000
v -4.40000 0.82000 -1.10000
v -4.65000 0.55000 -0.60000
v -4.50000 0.55000 -0.60000
v -4.50000 0.68000 -0.60000
v -4.65000 0.68000 -0.60000
v -4.65000 0.55000 -0.48000
v -4.50000 0.55000 -0.48000
v -4.50000 0.68000 -0.48000
v -4.65000 0.68000 -0.48000
v -4.40000 0.70000 -0.60000
v -4.30000 0.70000 -0.60000
v -4.30000 0.82000 -0.60000
v -4.40000 0.82000 -0.60000
v -4.40000 0.70000 -0.50000
v -4.30000 0.70000 -0.50000
v -4.30000 0.82000 -0.50000
v -4.40000 0.82000 -0.50000
v -4.65000 0.55000 0.00000
v -4.50000 0.55000 0.00000
v -4.50000 0.68000 0.00000
v -4.65000 0.68000 0.00000
v -4.65000 0.55000 0.12000
v -4.50000 0.55000 0.12000
v -4.50000 0.68000 0.12000
v -4.65000 0.68000 0.12000
v -4.40000 0.70000 0.00000
v -4.30000 0.70000 0.00000
v -4.30000 0.82000 0.00000
v -4.40000 0.82000 0.00000
v -4.40000 0.70000 0.10000
v -4.30000 0.70000 0.10000
v -4.30000 0.82000 0.10000
v -4.40000 0.82000 0.10000
v -4.65000 0.55000 0.60000
v -4.50000 0.55000 0.60000
v -4.50000 0.68000 0.60000
v -4.65000 0.68000 0.60000
v -4.65000 0.55000 0.72000
v -4.50000 0.55000 0.72000
v -4.50000 0.68000 0.72000
v -4.65000 0.68000 0.72000
v -4.40000 0.70000 0.60000
v -4.30000 0.70000 0.60000
v -4.30000 0.82000 0.60000
v -4.40000 0.82000 0.60000
v -4.40000 0.70000 0.70000
v -4.30000 0.70000 0.70000
v -4.30000 0.82000 0.70000
v -4.40000 0.82000 0.70000
v -4.65000 0.55000 1.20000
v -4.50000 0.55000 1.20000
v -4.50000 0.68000 1.20000
v -4.65000 0.68000 1.20000
v -4.65000 0.55000 1.32000
v -4.50000 0.55000 1.32000
v -4.50000 0.68000 1.32000
v -4.65000 0.68000 1.32000
v -4.40000 0.70000 1.20000
v -4.30000 0.70000 1.20000
v -4.30000 0.82000 1.20000
v -4.40000 0.82000 1.20000
v -4.40000 0.70000 1.30000
v -4.30000 0.70000 1.30000
v -4.30000 0.82000 1.30000
v -4.40000 0.82000 1.30000
v -4.65000 0.55000 1.80000
v -4.50000 0.55000 1.80000
v -4.50000 0.68000 1.80000
v -4.65000 0.68000 1.80000
v -4.65000 0.55000 1.92000
v -4.50000 0.55000 1.92000
v -4.50000 0.68000 1.92000
v -4.65000 0.68000 1.92000
v -4.40000 0.70000 1.80000
v -4.30000 0.70000 1.80000
v -4.30000 0.82000 1.80000
v -4.40000 0.82000 1.80000
v -4.40000 0.70000 1.90000
v -4.30000 0.70000 1.90000
v -4.30000 0.82000 1.90000
v -4.40000 0.82000 1.90000
v 3.95000 0.00000 -2.20000
v 4.85000 0.00000 -2.20000
v 4.85000 1.05000 -2.20000
v 3.95000 1.05000 -2.20000
v 3.95000 0.00000 2.20000
v 4.85000 0.00000 2.20000
v 4.85000 1.05000 2.20000
v 3.95000 1.05000 2.20000
v 3.95000 1.05000 -2.10000
v 4.80000 1.05000 -2.10000
v 4.80000 1.12000 -2.10000
v 3.95000 1.12000 -2.10000
v 3.95000 1.05000 2.10000
v 4.80000 1.05000 2.10000
v 4.80000 1.12000 2.10000
v 3.95000 1.12000 2.10000
v 4.70000 1.15000 -0.70000
v 4.80000 1.15000 -0.70000
v 4.80000 2.10000 -0.70000
v 4.70000 2.10000 -0.70000
v 4.70000 1.15000 0.70000
v 4.80000 1.15000 0.70000
v 4.80000 2.10000 0.70000
v 4.70000 2.10000 0.70000
v 4.15000 0.55000 -1.80000
v 4.30000 0.55000 -1.80000
v 4.30000 0.68000 -1.80000
v 4.15000 0.68000 -1.80000
v 4.15000 0.55000 -1.68000
v 4.30000 0.55000 -1.68000
v 4.30000 0.68000 -1.68000
v 4.15000 0.68000 -1.68000
v 4.40000 0.70000 -1.80000
v 4.50000 0.70000 -1.80000
v 4.50000 0.82000 -1.80000
v 4.40000 0.82000 -1.80000
v 4.40000 0.70000 -1.70000
v 4.50000 0.70000 -1.70000
v 4.50000 0.82000 -1.70000
v 4.40000 0.82000 -1.70000
v 4.15000 0.55000 -1.20000
v 4.30000 0.55000 -1.20000
v 4.30000 0.68000 -1.20000
v 4.15000 0.68000 -1.20000
v 4.15000 0.55000 -1.08000
v 4.30000 0.55000 -1.08000
v 4.30000 0.68000 -1.08000
v 4.15000 0.68000 -1.08000
v 4.40000 0.70000 -1.20000
v 4.50000 0.70000 -1.20000
v 4.50000 0.82000 -1.20000
v 4.40000 0.82000 -1.20000
v 4.40000 0.70000 -1.10000
v 4.50000 0.70000 -1.10000
v 4.50000 0.82000 -1.10000
v 4.40000 0.82000 -1.10000
v 4.15000 0.55000 -0.60000
v 4.30000 0.55000 -0.60000
v 4.30000 0.68000 -0.60000
v 4.15000 0.68000 -0.60000
v 4.15000 0.55000 -0.48000
v 4.30000 0.55000 -0.48000
v 4.30000 0.68000 -0.48000
v 4.15000 0.68000 -0.48000
v 4.40000 0.70000 -0.60000
v 4.50000 0.70000 -0.60000
v 4.50000 0.82000 -0.60000
v 4.40000 0.82000 -0.60000
v 4.40000 0.70000 -0.50000
v 4.50000 0.70000 -0.50000
v 4.50000 0.82000 -0.50000
v 4.40000 0.82000 -0.50000
v 4.15000 0.55000 0.00000
v 4.30000 0.55000 0.00000
v 4.30000 0.68000 0.00000
v 4.15000 0.68000 0.00000
v 4.15000 0.55000 0.12000
v 4.30000 0.55000 0.12000
v 4.30000 0.68000 0.12000
v 4.15000 0.68000 0.12000
v 4.40000 0.70000 0.00000
v 4.50000 0.70000 0.00000
v 4.50000 0.82000 0.00000
v 4.40000 0.82000 0.00000
v 4.40000 0.70000 0.10000
v 4.50000 0.70000 0.10000
v 4.50000 0.82000 0.10000
v 4.40000 0.82000 0.10000
v 4.15000 0.55000 0.60000
v 4.30000 0.55000 0.60000
v 4.30000 0.68000 0.60000
v 4.15000 0.68000 0.60000
v 4.15000 0.55000 0.72000
v 4.30000 0.55000 0.72000
v 4.30000 0.68000 0.72000
v 4.15000 0.68000 0.72000
v 4.40000 0.70000 0.60000
v 4.50000 0.70000 0.60000
v 4.50000 0.82000 0.60000
v 4.40000 0.82000 0.60000
v 4.40000 0.70000 0.70000
v 4.50000 0.70000 0.70000
v 4.50000 0.82000 0.70000
v 4.40000 0.82000 0.70000
v 4.15000 0.55000 1.20000
v 4.30000 0.55000 1.20000
v 4.30000 0.68000 1.20000
v 4.15000 0.68000 1.20000
v 4.15000 0.55000 1.32000
v 4.30000 0.55000 1.32000
v 4.30000 0.68000 1.32000
v 4.15000 0.68000 1.32000
v 4.40000 0.70000 1.20000
v 4.50000 0.70000 1.20000
v 4.50000 0.82000 1.20000
v 4.40000 0.82000 1.20000
v 4.40000 0.70000 1.30000
v 4.50000 0.70000 1.30000
v 4.50000 0.82000 1.30000
v 4.40000 0.82000 1.30000
v 4.15000 0.55000 1.80000
v 4.30000 0.55000 1.80000
v 4.30000 0.68000 1.80000
v 4.15000 0.68000 1.80000
v 4.15000 0.55000 1.92000
v 4.30000 0.55000 1.92000
v 4.30000 0.68000 1.92000
v 4.15000 0.68000 1.92000
v 4.40000 0.70000 1.80000
v 4.50000 0.70000 1.80000
v 4.50000 0.82000 1.80000
v 4.40000 0.82000 1.80000
v 4.40000 0.70000 1.90000
v 4.50000 0.70000 1.90000
v 4.50000 0.82000 1.90000
v 4.40000 0.82000 1.90000
v -1.20000 0.00000 -0.30000
v 1.20000 0.00000 -0.30000
v 1.20000 0.90000 -0.30000
v -1.20000 0.90000 -0.30000
v -1.20000 0.00000 1.40000
v 1.20000 0.00000 1.40000
v 1.20000 0.90000 1.40000
v -1.20000 0.90000 1.40000
v -1.25000 0.90000 -0.35000
v 1.25000 0.90000 -0.35000
v 1.25000 0.98000 -0.35000
v -1.25000 0.98000 -0.35000
v -1.25000 0.90000 1.45000
v 1.25000 0.90000 1.45000
v 1.25000 0.98000 1.45000
v -1.25000 0.98000 1.45000
v -0.70000 0.98000 0.10000
v 0.70000 0.98000 0.10000
v 0.70000 1.05000 0.10000
v -0.70000 1.05000 0.10000
v -0.70000 0.98000 1.00000
v 0.70000 0.98000 1.00000
v 0.70000 1.05000 1.00000
v -0.70000 1.05000 1.00000
v -0.15000 1.05000 0.40000
v 0.15000 1.05000 0.40000
v 0.15000 1.90000 0.40000
v -0.15000 1.90000 0.40000
v -0.15000 1.05000 0.70000
v 0.15000 1.05000 0.70000
v 0.15000 1.90000 0.70000
v -0.15000 1.90000 0.70000
v -1.00000 0.98000 -0.20000
v -0.50000 0.98000 -0.20000
v -0.50000 1.02000 -0.20000
v -1.00000 1.02000 -0.20000
v -1.00000 0.98000 0.15000
v -0.50000 0.98000 0.15000
v -0.50000 1.02000 0.15000
v -1.00000 1.02000 0.15000
v 0.50000 0.98000 -0.15000
v 1.00000 0.98000 -0.15000
v 1.00000 1.02000 -0.15000
v 0.50000 1.02000 -0.15000
v 0.50000 0.98000 0.20000
v 1.00000 0.98000 0.20000
v 1.00000 1.02000 0.20000
v 0.50000 1.02000 0.20000
v -1.10000 0.98000 1.00000
v -0.85000 0.98000 1.00000
v -0.85000 1.35000 1.00000
v -1.10000 1.35000 1.00000
v -1.10000 0.98000 1.25000
v -0.85000 0.98000 1.25000
v -0.85000 1.35000 1.25000
v -1.10000 1.35000 1.25000
v 0.85000 0.98000 1.00000
v 1.10000 0.98000 1.00000
v 1.10000 1.40000 1.00000
v 0.85000 1.40000 1.00000
v 0.85000 0.98000 1.25000
v 1.10000 0.98000 1.25000
v 1.10000 1.40000 1.25000
v 0.85000 1.40000 1.25000
v 0.20000 0.98000 -0.25000
v 0.55000 0.98000 -0.25000
v 0.55000 1.15000 -0.25000
v 0.20000 1.15000 -0.25000
v 0.20000 0.98000 0.05000
v 0.55000 0.98000 0.05000
v 0.55000 1.15000 0.05000
v 0.20000 1.15000 0.05000
v -2.20000 0.00000 0.30000
v -2.05000 0.00000 0.30000
v -2.05000 0.55000 0.30000
v -2.20000 0.55000 0.30000
v -2.20000 0.00000 0.45000
v -2.05000 0.00000 0.45000
v -2.05000 0.55000 0.45000
v -2.20000 0.55000 0.45000
v -2.35000 0.55000 0.15000
v -1.90000 0.55000 0.15000
v -1.90000 0.65000 0.15000
v -2.35000 0.65000 0.15000
v -2.35000 0.55000 0.60000
v -1.90000 0.55000 0.60000
v -1.90000 0.65000 0.60000
v -2.35000 0.65000 0.60000
v 2.00000 0.00000 0.20000
v 2.50000 0.00000 0.20000
v 2.50000 0.50000 0.20000
v 2.00000 0.50000 0.20000
v 2.00000 0.00000 0.70000
v 2.50000 0.00000 0.70000
v 2.50000 0.50000 0.70000
v 2.00000 0.50000 0.70000
v 2.40000 0.50000 0.25000
v 2.50000 0.50000 0.25000
v 2.50000 1.10000 0.25000
v 2.40000 1.10000 0.25000
v 2.40000 0.50000 0.65000
v 2.50000 0.50000 0.65000
v 2.50000 1.10000 0.65000
v 2.40000 1.10000 0.65000
v -4.80000 1.80000 -2.50000
v -4.60000 1.80000 -2.50000
v -4.60000 2.30000 -2.50000
v -4.80000 2.30000 -2.50000
v -4.80000 1.80000 -2.15000
v -4.60000 1.80000 -2.15000
v -4.60000 2.30000 -2.15000
v -4.80000 2.30000 -2.15000
v 4.60000 1.80000 -2.50000
v 4.80000 1.80000 -2.50000
v 4.80000 2.30000 -2.50000
v 4.60000 2.30000 -2.50000
v 4.60000 1.80000 -2.15000
v 4.80000 1.80000 -2.15000
v 4.80000 2.30000 -2.15000
v 4.60000 2.30000 -2.15000
v -4.80000 1.80000 -1.80000
v -4.60000 1.80000 -1.80000
v -4.60000 2.30000 -1.80000
v -4.80000 2.30000 -1.80000
v -4.80000 1.80000 -1.45000
v -4.60000 1.80000 -1.45000
v -4.60000 2.30000 -1.45000
v -4.80000 2.30000 -1.45000
v 4.60000 1.80000 -1.80000
v 4.80000 1.80000 -1.80000
v 4.80000 2.30000 -1.80000
v 4.60000 2.30000 -1.80000
v 4.60000 1.80000 -1.45000
v 4.80000 1.80000 -1.45000
v 4.80000 2.30000 -1.45000
v 4.60000 2.30000 -1.45000
v -4.80000 1.80000 -1.10000
v -4.60000 1.80000 -1.10000
v -4.60000 2.30000 -1.10000
v -4.80000 2.30000 -1.10000
v -4.80000 1.80000 -0.75000
v -4.60000 1.80000 -0.75000
v -4.60000 2.30000 -0.75000
v -4.80000 2.30000 -0.75000
v 4.60000 1.80000 -1.10000
v 4.80000 1.80000 -1.10000
v 4.80000 2.30000 -1.10000
v 4.60000 2.30000 -1.10000
v 4.60000 1.80000 -0.75000
v 4.80000 1.80000 -0.75000
v 4.80000 2.30000 -0.75000
v 4.60000 2.30000 -0.75000
v -4.80000 1.80000 -0.40000
v -4.60000 1.80000 -0.40000
v -4.60000 2.30000 -0.40000
v -4.80000 2.30000 -0.40000
v -4.80000 1.80000 -0.05000
v -4.60000 1.80000 -0.05000
v -4.60000 2.30000 -0.05000
v -4.80000 2.30000 -0.05000
v 4.60000 1.80000 -0.40000
v 4.80000 1.80000 -0.40000
v 4.80000 2.30000 -0.40000
v 4.60000 2.30000 -0.40000
v 4.60000 1.80000 -0.05000
v 4.80000 1.80000 -0.05000
v 4.80000 2.30000 -0.05000
v 4.60000 2.30000 -0.05000
v -4.80000 1.80000 0.30000
v -4.60000 1.80000 0.30000
v -4.60000 2.30000 0.30000
v -4.80000 2.30000 0.30000
v -4.80000 1.80000 0.65000
v -4.60000 1.80000 0.65000
v -4.60000 2.30000 0.65000
v -4.80000 2.30000 0.65000
v 4.60000 1.80000 0.30000
v 4.80000 1.80000 0.30000
v 4.80000 2.30000 0.30000
v 4.60000 2.30000 0.30000
v 4.60000 1.80000 0.65000
v 4.80000 1.80000 0.65000
v 4.80000 2.30000 0.65000
v 4.60000 2.30000 0.65000
v -4.80000 1.80000 1.00000
v -4.60000 1.80000 1.00000
v -4.60000 2.30000 1.00000
v -4.80000 2.30000 1.00000
v -4.80000 1.80000 1.35000
v -4.60000 1.80000 1.35000
v -4.60000 2.30000 1.35000
v -4.80000 2.30000 1.35000
v 4.60000 1.80000 1.00000
v 4.80000 1.80000 1.00000
v 4.80000 2.30000 1.00000
v 4.60000 2.30000 1.00000
v 4.60000 1.80000 1.35000
v 4.80000 1.80000 1.35000
v 4.80000 2.30000 1.35000
v 4.60000 2.30000 1.35000
v -4.80000 1.80000 1.70000
v -4.60000 1.80000 1.70000
v -4.60000 2.30000 1.70000
v -4.80000 2.30000 1.70000
v -4.80000 1.80000 2.05000
v -4.60000 1.80000 2.05000
v -4.60000 2.30000 2.05000
v -4.80000 2.30000 2.05000
v 4.60000 1.80000 1.70000
v 4.80000 1.80000 1.70000
v 4.80000 2.30000 1.70000
v 4.60000 2.30000 1.70000
v 4.60000 1.80000 2.05000
v 4.80000 1.80000 2.05000
v 4.80000 2.30000 2.05000
v 4.60000 2.30000 2.05000
v -3.50000 0.00000 -3.20000
v -2.60000 0.00000 -3.20000
v -2.60000 0.70000 -3.20000
v -3.50000 0.70000 -3.20000
v -3.50000 0.00000 -2.40000
v -2.60000 0.00000 -2.40000
v -2.60000 0.70000 -2.40000
v -3.50000 0.70000 -2.40000
v -2.50000 0.00000 -3.30000
v -1.70000 0.00000 -3.30000
v -1.70000 0.50000 -3.30000
v -2.50000 0.50000 -3.30000
v -2.50000 0.00000 -2.50000
v -1.70000 0.00000 -2.50000
v -1.70000 0.50000 -2.50000
v -2.50000 0.50000 -2.50000
v 2.80000 0.00000 -3.20000
v 3.70000 0.00000 -3.20000
v 3.70000 0.60000 -3.20000
v 2.80000 0.60000 -3.20000
v 2.80000 0.00000 -2.30000
v 3.70000 0.00000 -2.30000
v 3.70000 0.60000 -2.30000
v 2.80000 0.60000 -2.30000
v 3.30000 0.00000 2.50000
v 3.90000 0.00000 2.50000
v 3.90000 0.35000 2.50000
v 3.30000 0.35000 2.50000
v 3.30000 0.00000 3.10000
v 3.90000 0.00000 3.10000
v 3.90000 0.35000 3.10000
v 3.30000 0.35000 3.10000
v 3.40000 0.35000 2.60000
v 3.80000 0.35000 2.60000
v 3.80000 1.60000 2.60000
v 3.40000 1.60000 2.60000
v 3.40000 0.35000 3.00000
v 3.80000 0.35000 3.00000
v 3.80000 1.60000 3.00000
v 3.40000 1.60000 3.00000
v -3.80000 1.60000 2.80000
v -3.50000 1.60000 2.80000
v -3.50000 2.00000 2.80000
v -3.80000 2.00000 2.80000
v -3.80000 1.60000 3.10000
v -3.50000 1.60000 3.10000
v -3.50000 2.00000 3.10000
v -3.80000 2.00000 3.10000
v 3.50000 1.60000 -2.00000
v 3.80000 1.60000 -2.00000
v 3.80000 2.00000 -2.00000
v 3.50000 2.00000 -2.00000
v 3.50000 1.60000 -1.70000
v 3.80000 1.60000 -1.70000
v 3.80000 2.00000 -1.70000
v 3.50000 2.00000 -1.70000
v -4.00000 0.02000 2.80000
v 4.00000 0.02000 2.80000
v 4.00000 0.06000 2.80000
v -4.00000 0.06000 2.80000
v -4.00000 0.02000 2.90000
v 4.00000 0.02000 2.90000
v 4.00000 0.06000 2.90000
v -4.00000 0.06000 2.90000
v -2.50000 1.20000 3.77000
v 2.50000 1.20000 3.77000
v 2.50000 2.70000 3.77000
v -2.50000 2.70000 3.77000
v -2.50000 1.20000 3.83000
v 2.50000 1.20000 3.83000
v 2.50000 2.70000 3.83000
v -2.50000 2.70000 3.83000
v -2.60000 1.10000 3.76000
v 2.60000 1.10000 3.76000
v 2.60000 2.80000 3.76000
v -2.60000 2.80000 3.76000
v -2.60000 1.10000 3.78000
v 2.60000 1.10000 3.78000
v 2.60000 2.80000 3.78000
v -2.60000 2.80000 3.78000
v -3.80000 1.30000 3.79000
v -2.70000 1.30000 3.79000
v -2.70000 2.00000 3.79000
v -3.80000 2.00000 3.79000
v -3.80000 1.30000 3.85000
v -2.70000 1.30000 3.85000
v -2.70000 2.00000 3.85000
v -3.80000 2.00000 3.85000
v 2.70000 1.30000 3.79000
v 3.80000 1.30000 3.79000
v 3.80000 2.00000 3.79000
v 2.70000 2.00000 3.79000
v 2.70000 1.30000 3.85000
v 3.80000 1.30000 3.85000
v 3.80000 2.00000 3.85000
v 2.70000 2.00000 3.85000
v -0.40000 2.75000 3.80000
v 0.40000 2.75000 3.80000
v 0.40000 3.05000 3.80000
v -0.40000 3.05000 3.80000
v -0.40000 2.75000 3.85000
v 0.40000 2.75000 3.85000
v 0.40000 3.05000 3.85000
v -0.40000 3.05000 3.85000
v -2.00000 2.40000 1.50000
v -1.92000 2.40000 1.50000
v -1.92000 3.35000 1.50000
v -2.00000 3.35000 1.50000
v -2.00000 2.40000 2.80000
v -1.92000 2.40000 2.80000
v -1.92000 3.35000 2.80000
v -2.00000 3.35000 2.80000
v -2.05000 2.30000 2.60000
v -1.88000 2.30000 2.60000
v -1.88000 2.45000 2.60000
v -2.05000 2.45000 2.60000
v -2.05000 2.30000 2.85000
v -1.88000 2.30000 2.85000
v -1.88000 2.45000 2.85000
v -2.05000 2.45000 2.85000
v -0.50000 2.40000 1.50000
v -0.42000 2.40000 1.50000
v -0.42000 3.35000 1.50000
v -0.50000 3.35000 1.50000
v -0.50000 2.40000 2.80000
v -0.42000 2.40000 2.80000
v -0.42000 3.35000 2.80000
v -0.50000 3.35000 2.80000
v -0.55000 2.30000 2.60000
v -0.38000 2.30000 2.60000
v -0.38000 2.45000 2.60000
v -0.55000 2.45000 2.60000
v -0.55000 2.30000 2.85000
v -0.38000 2.30000 2.85000
v -0.38000 2.45000 2.85000
v -0.55000 2.45000 2.85000
v 1.00000 2.40000 1.50000
v 1.08000 2.40000 1.50000
v 1.08000 3.35000 1.50000
v 1.00000 3.35000 1.50000
v 1.00000 2.40000 2.80000
v 1.08000 2.40000 2.80000
v 1.08000 3.35000 2.80000
v 1.00000 3.35000 2.80000
v 0.95000 2.30000 2.60000
v 1.12000 2.30000 2.60000
v 1.12000 2.45000 2.60000
v 0.95000 2.45000 2.60000
v 0.95000 2.30000 2.85000
v 1.12000 2.30000 2.85000
v 1.12000 2.45000 2.85000
v 0.95000 2.45000 2.85000
v 2.50000 2.40000 1.50000
v 2.58000 2.40000 1.50000
v 2.58000 3.35000 1.50000
v 2.50000 3.35000 1.50000
v 2.50000 2.40000 2.80000
v 2.58000 2.40000 2.80000
v 2.58000 3.35000 2.80000
v 2.50000 3.35000 2.80000
v 2.45000 2.30000 2.60000
v 2.62000 2.30000 2.60000
v 2.62000 2.45000 2.60000
v 2.45000 2.45000 2.60000
v 2.45000 2.30000 2.85000
v 2.62000 2.30000 2.85000
v 2.62000 2.45000 2.85000
v 2.45000 2.45000 2.85000
vt 0.000000 0.250000
vt 0.500000 0.250000
vt 0.500000 0.500000
vt 0.000000 0.500000
vt 0.750000 0.750000
vt 1.000000 0.750000
vt 1.000000 1.000000
vt 0.750000 1.000000
vt 0.500000 0.750000
vt 0.750000 0.750000
vt 0.750000 1.000000
vt 0.500000 1.000000
vt 0.500000 0.750000
vt 0.750000 0.750000
vt 0.750000 1.000000
vt 0.500000 1.000000
vt 0.250000 0.750000
vt 0.500000 0.750000
vt 0.500000 1.000000
vt 0.250000 1.000000
vt 0.000000 0.750000
vt 0.250000 0.750000
vt 0.250000 1.000000
vt 0.000000 1.000000
vt 0.000000 0.750000
vt 0.250000 0.750000
vt 0.250000 1.000000
vt 0.000000 1.000000
vt 0.000000 0.750000
vt 0.250000 0.750000
vt 0.250000 1.000000
vt 0.000000 1.000000
vt 0.000000 0.750000
vt 0.250000 0.750000
vt 0.250000 1.000000
vt 0.000000 1.000000
vt 0.000000 0.000000
vt 0.500000 0.000000
vt 0.500000 0.250000
vt 0.000000 0.250000
vt 0.750000 0.750000
vt 1.000000 0.750000
vt 1.000000 1.000000
vt 0.750000 1.000000
vt 0.250000 0.750000
vt 0.500000 0.750000
vt 0.500000 1.000000
vt 0.250000 1.000000
vt 0.500000 0.750000
vt 0.750000 0.750000
vt 0.750000 1.000000
vt 0.500000 1.000000
vt 0.750000 0.750000
vt 1.000000 0.750000
vt 1.000000 1.000000
vt 0.750000 1.000000
vt 0.500000 0.000000
vt 0.750000 0.000000
vt 0.750000 0.250000
vt 0.500000 0.250000
vt 0.500000 0.750000
vt 0.750000 0.750000
vt 0.750000 1.000000
vt 0.500000 1.000000
vt 0.750000 0.750000
vt 1.000000 0.750000
vt 1.000000 1.000000
vt 0.750000 1.000000
vt 0.250000 0.750000
vt 0.500000 0.750000
vt 0.500000 1.000000
vt 0.250000 1.000000
vt 0.500000 0.750000
vt 0.750000 0.750000
vt 0.750000 1.000000
vt 0.500000 1.000000
vt 0.750000 0.750000
vt 1.000000 0.750000
vt 1.000000 1.000000
vt 0.750000 1.000000
vt 0.500000 0.000000
vt 0.750000 0.000000
vt 0.750000 0.250000
vt 0.500000 0.250000
vt 0.500000 0.750000
vt 0.750000 0.750000
vt 0.750000 1.000000
vt 0.500000 1.000000
vt 0.750000 0.750000
vt 1.000000 0.750000
vt 1.000000 1.000000
vt 0.750000 1.000000
vt 0.250000 0.750000
vt 0.500000 0.750000
vt 0.500000 1.000000
vt 0.250000 1.000000
vt 0.500000 0.750000
vt 0.750000 0.750000
vt 0.750000 1.000000
vt 0.500000 1.000000
vt 0.750000 0.750000
vt 1.000000 0.750000
vt 1.000000 1.000000
vt 0.750000 1.000000
vt 0.500000 0.000000
vt 0.750000 0.000000
vt 0.750000 0.250000
vt 0.500000 0.250000
vt 0.500000 0.750000
vt 0.750000 0.750000
vt 0.750000 1.000000
vt 0.500000 1.000000
vt 0.750000 0.750000
vt 1.000000 0.750000
vt 1.000000 1.000000
vt 0.750000 1.000000
vt 0.250000 0.750000
vt 0.500000 0.750000
vt 0.500000 1.000000
vt 0.250000 1.000000
vt 0.500000 0.750000
vt 0.750000 0.750000
vt 0.750000 1.000000
vt 0.500000 1.000000
vt 0.750000 0.750000
vt 1.000000 0.750000
vt 1.000000 1.000000
vt 0.750000 1.000000
vt 0.500000 0.000000
vt 0.750000 0.000000
vt 0.750000 0.250000
vt 0.500000 0.250000
vt 0.500000 0.750000
vt 0.750000 0.750000
vt 0.750000 1.000000
vt 0.500000 1.000000
vt 0.750000 0.750000
vt 1.000000 0.750000
vt 1.000000 1.000000
vt 0.750000 1.000000
vt 0.750000 0.250000
vt 1.000000 0.250000
vt 1.000000 0.500000
vt 0.750000 0.500000
vt 0.250000 0.750000
vt 0.500000 0.750000
vt 0.500000 1.000000
vt 0.250000 1.000000
vt 0.250000 0.500000
vt 0.500000 0.500000
vt 0.500000 0.750000
vt 0.250000 0.750000
vt 0.500000 0.500000
vt 0.750000 0.500000
vt 0.750000 0.750000
vt 0.500000 0.750000
vt 0.750000 0.750000
vt 1.000000 0.750000
vt 1.000000 1.000000
vt 0.750000 1.000000
vt 0.500000 0.750000
vt 0.750000 0.750000
vt 0.750000 1.000000
vt 0.500000 1.000000
vt 0.750000 0.750000
vt 1.000000 0.750000
vt 1.000000 1.000000
vt 0.750000 1.000000
vt 0.750000 0.500000
vt 1.000000 0.500000
vt 1.000000 0.750000
vt 0.750000 0.750000
vt 0.750000 0.750000
vt 1.000000 0.750000
vt 1.000000 1.000000
vt 0.750000 1.000000
vt 0.250000 0.500000
vt 0.500000 0.500000
vt 0.500000 0.750000
vt 0.250000 0.750000
vt 0.750000 0.750000
vt 1.000000 0.750000
vt 1.000000 1.000000
vt 0.750000 1.000000
vt 0.500000 0.500000
vt 0.750000 0.500000
vt 0.750000 0.750000
vt 0.500000 0.750000
vt 0.750000 0.750000
vt 1.000000 0.750000
vt 1.000000 1.000000
vt 0.750000 1.000000
vt 0.500000 0.750000
vt 0.750000 0.750000
vt 0.750000 1.000000
vt 0.500000 1.000000
vt 0.750000 0.750000
vt 1.000000 0.750000
vt 1.000000 1.000000
vt 0.750000 1.000000
vt 0.750000 0.500000
vt 1.000000 0.500000
vt 1.000000 0.750000
vt 0.750000 0.750000
vt 0.750000 0.750000
vt 1.000000 0.750000
vt 1.000000 1.000000
vt 0.750000 1.000000
vt 0.750000 0.250000
vt 1.000000 0.250000
vt 1.000000 0.500000
vt 0.750000 0.500000
vt 0.250000 0.750000
vt 0.500000 0.750000
vt 0.500000 1.000000
vt 0.250000 1.000000
vt 0.250000 0.500000
vt 0.500000 0.500000
vt 0.500000 0.750000
vt 0.250000 0.750000
vt 0.500000 0.500000
vt 0.750000 0.500000
vt 0.750000 0.750000
vt 0.500000 0.750000
vt 0.750000 0.750000
vt 1.000000 0.750000
vt 1.000000 1.000000
vt 0.750000 1.000000
vt 0.500000 0.750000
vt 0.750000 0.750000
vt 0.750000 1.000000
vt 0.500000 1.000000
vt 0.750000 0.750000
vt 1.000000 0.750000
vt 1.000000 1.000000
vt 0.750000 1.000000
vt 0.750000 0.500000
vt 1.000000 0.500000
vt 1.000000 0.750000
vt 0.750000 0.750000
vt 0.750000 0.750000
vt 1.000000 0.750000
vt 1.000000 1.000000
vt 0.750000 1.000000
vt 0.250000 0.500000
vt 0.500000 0.500000
vt 0.500000 0.750000
vt 0.250000 0.750000
vt 0.750000 0.750000
vt 1.000000 0.750000
vt 1.000000 1.000000
vt 0.750000 1.000000
vt 0.500000 0.500000
vt 0.750000 0.500000
vt 0.750000 0.750000
vt 0.500000 0.750000
vt 0.750000 0.750000
vt 1.000000 0.750000
vt 1.000000 1.000000
vt 0.750000 1.000000
vt 0.500000 0.750000
vt 0.750000 0.750000
vt 0.750000 1.000000
vt 0.500000 1.000000
vt 0.750000 0.750000
vt 1.000000 0.750000
vt 1.000000 1.000000
vt 0.750000 1.000000
vt 0.750000 0.500000
vt 1.000000 0.500000
vt 1.000000 0.750000
vt 0.750000 0.750000
vt 0.750000 0.750000
vt 1.000000 0.750000
vt 1.000000 1.000000
vt 0.750000 1.000000
vt 0.750000 0.750000
vt 1.000000 0.750000
vt 1.000000 1.000000
vt 0.750000 1.000000
vt 0.000000 0.750000
vt 0.250000 0.750000
vt 0.250000 1.000000
vt 0.000000 1.000000
vt 0.250000 0.500000
vt 0.500000 0.500000
vt 0.500000 0.750000
vt 0.250000 0.750000
vt 0.500000 0.750000
vt 0.750000 0.750000
vt 0.750000 1.000000
vt 0.500000 1.000000
vt 0.250000 0.500000
vt 0.500000 0.500000
vt 0.500000 0.750000
vt 0.250000 0.750000
vt 0.500000 0.500000
vt 0.750000 0.500000
vt 0.750000 0.750000
vt 0.500000 0.750000
vt 0.750000 0.750000
vt 1.000000 0.750000
vt 1.000000 1.000000
vt 0.750000 1.000000
vt 0.500000 0.250000
vt 0.750000 0.250000
vt 0.750000 0.500000
vt 0.500000 0.500000
vt 0.500000 0.000000
vt 0.750000 0.000000
vt 0.750000 0.250000
vt 0.500000 0.250000
vt 0.750000 0.750000
vt 1.000000 0.750000
vt 1.000000 1.000000
vt 0.750000 1.000000
vt 0.250000 0.750000
vt 0.500000 0.750000
vt 0.500000 1.000000
vt 0.250000 1.000000
vt 0.250000 0.750000
vt 0.500000 0.750000
vt 0.500000 1.000000
vt 0.250000 1.000000
vt 0.000000 0.750000
vt 0.250000 0.750000
vt 0.250000 1.000000
vt 0.000000 1.000000
vt 0.250000 0.500000
vt 0.500000 0.500000
vt 0.500000 0.750000
vt 0.250000 0.750000
vt 0.750000 0.750000
vt 1.000000 0.750000
vt 1.000000 1.000000
vt 0.750000 1.000000
vt 0.500000 0.500000
vt 0.750000 0.500000
vt 0.750000 0.750000
vt 0.500000 0.750000
vt 0.500000 0.750000
vt 0.750000 0.750000
vt 0.750000 1.000000
vt 0.500000 1.000000
vt 0.750000 0.500000
vt 1.000000 0.500000
vt 1.000000 0.750000
vt 0.750000 0.750000
vt 0.250000 0.500000
vt 0.500000 0.500000
vt 0.500000 0.750000
vt 0.250000 0.750000
vt 0.500000 0.750000
vt 0.750000 0.750000
vt 0.750000 1.000000
vt 0.500000 1.000000
vt 0.500000 0.500000
vt 0.750000 0.500000
vt 0.750000 0.750000
vt 0.500000 0.750000
vt 0.750000 0.750000
vt 1.000000 0.750000
vt 1.000000 1.000000
vt 0.750000 1.000000
vt 0.750000 0.500000
vt 1.000000 0.500000
vt 1.000000 0.750000
vt 0.750000 0.750000
vt 0.500000 0.250000
vt 0.750000 0.250000
vt 0.750000 0.500000
vt 0.500000 0.500000
vt 0.000000 0.500000
vt 0.250000 0.500000
vt 0.250000 0.750000
vt 0.000000 0.750000
vt 0.000000 0.500000
vt 0.250000 0.500000
vt 0.250000 0.750000
vt 0.000000 0.750000
vt 0.500000 0.250000
vt 0.750000 0.250000
vt 0.750000 0.500000
vt 0.500000 0.500000
vt 0.500000 0.250000
vt 0.750000 0.250000
vt 0.750000 0.500000
vt 0.500000 0.500000
vt 0.750000 0.750000
vt 1.000000 0.750000
vt 1.000000 1.000000
vt 0.750000 1.000000
vt 0.250000 0.750000
vt 0.500000 0.750000
vt 0.500000 1.000000
vt 0.250000 1.000000
vt 0.750000 0.750000
vt 1.000000 0.750000
vt 1.000000 1.000000
vt 0.750000 1.000000
vt 0.500000 0.750000
vt 0.750000 0.750000
vt 0.750000 1.000000
vt 0.500000 1.000000
vt 0.500000 0.500000
vt 0.750000 0.500000
vt 0.750000 0.750000
vt 0.500000 0.750000
vt 0.500000 0.750000
vt 0.750000 0.750000
vt 0.750000 1.000000
vt 0.500000 1.000000
vt 0.500000 0.750000
vt 0.750000 0.750000
vt 0.750000 1.000000
vt 0.500000 1.000000
vt 0.250000 0.500000
vt 0.500000 0.500000
vt 0.500000 0.750000
vt 0.250000 0.750000
vt 0.750000 0.750000
vt 1.000000 0.750000
vt 1.000000 1.000000
vt 0.750000 1.000000
vt 0.250000 0.500000
vt 0.500000 0.500000
vt 0.500000 0.750000
vt 0.250000 0.750000
vt 0.250000 0.500000
vt 0.500000 0.500000
vt 0.500000 0.750000
vt 0.250000 0.750000
vt 0.500000 0.250000
vt 0.750000 0.250000
vt 0.750000 0.500000
vt 0.500000 0.500000
vt 0.500000 0.000000
vt 0.750000 0.000000
vt 0.750000 0.250000
vt 0.500000 0.250000
vt 0.500000 0.750000
vt 0.750000 0.750000
vt 0.750000 1.000000
vt 0.500000 1.000000
vt 0.500000 0.000000
vt 0.750000 0.000000
vt 0.750000 0.250000
vt 0.500000 0.250000
vt 0.500000 0.750000
vt 0.750000 0.750000
vt 0.750000 1.000000
vt 0.500000 1.000000
vt 0.500000 0.000000
vt 0.750000 0.000000
vt 0.750000 0.250000
vt 0.500000 0.250000
vt 0.500000 0.750000
vt 0.750000 0.750000
vt 0.750000 1.000000
vt 0.500000 1.000000
vt 0.500000 0.000000
vt 0.750000 0.000000
vt 0.750000 0.250000
vt 0.500000 0.250000
vt 0.500000 0.750000
vt 0.750000 0.750000
vt 0.750000 1.000000
vt 0.500000 1.000000
f 1/1 2/2 3/3
f 1/1 3/3 4/4
f 6/1 5/2 8/3
f 6/1 8/3 7/4
f 5/1 1/2 4/3
f 5/1 4/3 8/4
f 2/1 6/2 7/3
f 2/1 7/3 3/4
f 4/1 3/2 7/3
f 4/1 7/3 8/4
f 5/1 6/2 2/3
f 5/1 2/3 1/4
f 9/5 10/6 11/7
f 9/5 11/7 12/8
f 14/5 13/6 16/7
f 14/5 16/7 15/8
f 13/5 9/6 12/7
f 13/5 12/7 16/8
f 10/5 14/6 15/7
f 10/5 15/7 11/8
f 12/5 11/6 15/7
f 12/5 15/7 16/8
f 13/5 14/6 10/7
f 13/5 10/7 9/8
f 17/9 18/10 19/11
f 17/9 19/11 20/12
f 22/9 21/10 24/11
f 22/9 24/11 23/12
f 21/9 17/10 20/11
f 21/9 20/11 24/12
f 18/9 22/10 23/11
f 18/9 23/11 19/12
f 20/9 19/10 23/11
f 20/9 23/11 24/12
f 21/9 22/10 18/11
f 21/9 18/11 17/12
f 25/13 26/14 27/15
f 25/13 27/15 28/16
f 30/13 29/14 32/15
f 30/13 32/15 31/16
f 29/13 25/14 28/15
f 29/13 28/15 32/16
f 26/13 30/14 31/15
f 26/13 31/15 27/16
f 28/13 27/14 31/15
f 28/13 31/15 32/16
f 29/13 30/14 26/15
f 29/13 26/15 25/16
f 33/17 34/18 35/19
f 33/17 35/19 36/20
f 38/17 37/18 40/19
f 38/17 40/19 39/20
f 37/17 33/18 36/19
f 37/17 36/19 40/20
f 34/17 38/18 39/19
f 34/17 39/19 35/20
f 36/17 35/18 39/19
f 36/17 39/19 40/20
f 37/17 38/18 34/19
f 37/17 34/19 33/20
f 41/21 42/22 43/23
f 41/21 43/23 44/24
f 46/21 45/22 48/23
f 46/21 48/23 47/24
f 45/21 41/22 44/23
f 45/21 44/23 48/24
f 42/21 46/22 47/23
f 42/21 47/23 43/24
f 44/21 43/22 47/23
f 44/21 47/23 48/24
f 45/21 46/22 42/23
f 45/21 42/23 41/24
f 49/25 50/26 51/27
f 49/25 51/27 52/28
f 54/25 53/26 56/27
f 54/25 56/27 55/28
f 53/25 49/26 52/27
f 53/25 52/27 56/28
f 50/25 54/26 55/27
f 50/25 55/27 51/28
f 52/25 51/26 55/27
f 52/25 55/27 56/28
f 53/25 54/26 50/27
f 53/25 50/27 49/28
f 57/29 58/30 59/31
f 57/29 59/31 60/32
f 62/29 61/30 64/31
f 62/29 64/31 63/32
f 61/29 57/30 60/31
f 61/29 60/31 64/32
f 58/29 62/30 63/31
f 58/29 63/31 59/32
f 60/29 59/30 63/31
f 60/29 63/31 64/32
f 61/29 62/30 58/31
f 61/29 58/31 57/32
f 65/33 66/34 67/35
f 65/33 67/35 68/36
f 70/33 69/34 72/35
f 70/33 72/35 71/36
f 69/33 65/34 68/35
f 69/33 68/35 72/36
f 66/33 70/34 71/35
f 66/33 71/35 67/36
f 68/33 67/34 71/35
f 68/33 71/35 72/36
f 69/33 70/34 66/35
f 69/33 66/35 65/36
f 73/37 74/38 75/39
f 73/37 75/39 76/40
f 78/37 77/38 80/39
f 78/37 80/39 79/40
f 77/37 73/38 76/39
f 77/37 76/39 80/40
f 74/37 78/38 79/39
f 74/37 79/39 75/40
f 76/37 75/38 79/39
f 76/37 79/39 80/40
f 77/37 78/38 74/39
f 77/37 74/39 73/40
f 81/41 82/42 83/43
f 81/41 83/43 84/44
f 86/41 85/42 88/43
f 86/41 88/43 87/44
f 85/41 81/42 84/43
f 85/41 84/43 88/44
f 82/41 86/42 87/43
f 82/41 87/43 83/44
f 84/41 83/42 87/43
f 84/41 87/43 88/44
f 85/41 86/42 82/43
f 85/41 82/43 81/44
f 89/45 90/46 91/47
f 89/45 91/47 92/48
f 94/45 93/46 96/47
f 94/45 96/47 95/48
f 93/45 89/46 92/47
f 93/45 92/47 96/48
f 90/45 94/46 95/47
f 90/45 95/47 91/48
f 92/45 91/46 95/47
f 92/45 95/47 96/48
f 93/45 94/46 90/47
f 93/45 90/47 89/48
f 97/49 98/50 99/51
f 97/49 99/51 100/52
f 102/49 101/50 104/51
f 102/49 104/51 103/52
f 101/49 97/50 100/51
f 101/49 100/51 104/52
f 98/49 102/50 103/51
f 98/49 103/51 99/52
f 100/49 99/50 103/51
f 100/49 103/51 104/52
f 101/49 102/50 98/51
f 101/49 98/51 97/52
f 105/53 106/54 107/55
f 105/53 107/55 108/56
f 110/53 109/54 112/55
f 110/53 112/55 111/56
f 109/53 105/54 108/55
f 109/53 108/55 112/56
f 106/53 110/54 111/55
f 106/53 111/55 107/56
f 108/53 107/54 111/55
f 108/53 111/55 112/56
f 109/53 110/54 106/55
f 109/53 106/55 105/56
f 113/57 114/58 115/59
f 113/57 115/59 116/60
f 118/57 117/58 120/59
f 118/57 120/59 119/60
f 117/57 113/58 116/59
f 117/57 116/59 120/60
f 114/57 118/58 119/59
f 114/57 119/59 115/60
f 116/57 115/58 119/59
f 116/57 119/59 120/60
f 117/57 118/58 114/59
f 117/57 114/59 113/60
f 121/61 122/62 123/63
f 121/61 123/63 124/64
f 126/61 125/62 128/63
f 126/61 128/63 127/64
f 125/61 121/62 124/63
f 125/61 124/63 128/64
f 122/61 126/62 127/63
f 122/61 127/63 123/64
f 124/61 123/62 127/63
f 124/61 127/63 128/64
f 125/61 126/62 122/63
f 125/61 122/63 121/64
f 129/65 130/66 131/67
f 129/65 131/67 132/68
f 134/65 133/66 136/67
f 134/65 136/67 135/68
f 133/65 129/66 132/67
f 133/65 132/67 136/68
f 130/65 134/66 135/67
f 130/65 135/67 131/68
f 132/65 131/66 135/67
f 132/65 135/67 136/68
f 133/65 134/66 130/67
f 133/65 130/67 129/68
f 137/69 138/70 139/71
f 137/69 139/71 140/72
f 142/69 141/70 144/71
f 142/69 144/71 143/72
f 141/69 137/70 140/71
f 141/69 140/71 144/72
f 138/69 142/70 143/71
f 138/69 143/71 139/72
f 140/69 139/70 143/71
f 140/69 143/71 144/72
f 141/69 142/70 138/71
f 141/69 138/71 137/72
f 145/73 146/74 147/75
f 145/73 147/75 148/76
f 150/73 149/74 152/75
f 150/73 152/75 151/76
f 149/73 145/74 148/75
f 149/73 148/75 152/76
f 146/73 150/74 151/75
f 146/73 151/75 147/76
f 148/73 147/74 151/75
f 148/73 151/75 152/76
f 149/73 150/74 146/75
f 149/73 146/75 145/76
f 153/77 154/78 155/79
f 153/77 155/79 156/80
f 158/77 157/78 160/79
f 158/77 160/79 159/80
f 157/77 153/78 156/79
f 157/77 156/79 160/80
f 154/77 158/78 159/79
f 154/77 159/79 155/80
f 156/77 155/78 159/79
f 156/77 159/79 160/80
f 157/77 158/78 154/79
f 157/77 154/79 153/80
f 161/81 162/82 163/83
f 161/81 163/83 164/84
f 166/81 165/82 168/83
f 166/81 168/83 167/84
f 165/81 161/82 164/83
f 165/81 164/83 168/84
f 162/81 166/82 167/83
f 162/81 167/83 163/84
f 164/81 163/82 167/83
f 164/81 167/83 168/84
f 165/81 166/82 162/83
f 165/81 162/83 161/84
f 169/85 170/86 171/87
f 169/85 171/87 172/88
f 174/85 173/86 176/87
f 174/85 176/87 175/88
f 173/85 169/86 172/87
f 173/85 172/87 176/88
f 170/85 174/86 175/87
f 170/85 175/87 171/88
f 172/85 171/86 175/87
f 172/85 175/87 176/88
f 173/85 174/86 170/87
f 173/85 170/87 169/88
f 177/89 178/90 179/91
f 177/89 179/91 180/92
f 182/89 181/90 184/91
f 182/89 184/91 183/92
f 181/89 177/90 180/91
f 181/89 180/91 184/92
f 178/89 182/90 183/91
f 178/89 183/91 179/92
f 180/89 179/90 183/91
f 180/89 183/91 184/92
f 181/89 182/90 178/91
f 181/89 178/91 177/92
f 185/93 186/94 187/95
f 185/93 187/95 188/96
f 190/93 189/94 192/95
f 190/93 192/95 191/96
f 189/93 185/94 188/95
f 189/93 188/95 192/96
f 186/93 190/94 191/95
f 186/93 191/95 187/96
f 188/93 187/94 191/95
f 188/93 191/95 192/96
f 189/93 190/94 186/95
f 189/93 186/95 185/96
f 193/97 194/98 195/99
f 193/97 195/99 196/100
f 198/97 197/98 200/99
f 198/97 200/99 199/100
f 197/97 193/98 196/99
f 197/97 196/99 200/100
f 194/97 198/98 199/99
f 194/97 199/99 195/100
f 196/97 195/98 199/99
f 196/97 199/99 200/100
f 197/97 198/98 194/99
f 197/97 194/99 193/100
f 201/101 202/102 203/103
f 201/101 203/103 204/104
f 206/101 205/102 208/103
f 206/101 208/103 207/104
f 205/101 201/102 204/103
f 205/101 204/103 208/104
f 202/101 206/102 207/103
f 202/101 207/103 203/104
f 204/101 203/102 207/103
f 204/101 207/103 208/104
f 205/101 206/102 202/103
f 205/101 202/103 201/104
f 209/105 210/106 211/107
f 209/105 211/107 212/108
f 214/105 213/106 216/107
f 214/105 216/107 215/108
f 213/105 209/106 212/107
f 213/105 212/107 216/108
f 210/105 214/106 215/107
f 210/105 215/107 211/108
f 212/105 211/106 215/107
f 212/105 215/107 216/108
f 213/105 214/106 210/107
f 213/105 210/107 209/108
f 217/109 218/110 219/111
f 217/109 219/111 220/112
f 222/109 221/110 224/111
f 222/109 224/111 223/112
f 221/109 217/110 220/111
f 221/109 220/111 224/112
f 218/109 222/110 223/111
f 218/109 223/111 219/112
f 220/109 219/110 223/111
f 220/109 223/111 224/112
f 221/109 222/110 218/111
f 221/109 218/111 217/112
f 225/113 226/114 227/115
f 225/113 227/115 228/116
f 230/113 229/114 232/115
f 230/113 232/115 231/116
f 229/113 225/114 228/115
f 229/113 228/115 232/116
f 226/113 230/114 231/115
f 226/113 231/115 227/116
f 228/113 227/114 231/115
f 228/113 231/115 232/116
f 229/113 230/114 226/115
f 229/113 226/115 225/116
f 233/117 234/118 235/119
f 233/117 235/119 236/120
f 238/117 237/118 240/119
f 238/117 240/119 239/120
f 237/117 233/118 236/119
f 237/117 236/119 240/120
f 234/117 238/118 239/119
f 234/117 239/119 235/120
f 236/117 235/118 239/119
f 236/117 239/119 240/120
f 237/117 238/118 234/119
f 237/117 234/119 233/120
f 241/121 242/122 243/123
f 241/121 243/123 244/124
f 246/121 245/122 248/123
f 246/121 248/123 247/124
f 245/121 241/122 244/123
f 245/121 244/123 248/124
f 242/121 246/122 247/123
f 242/121 247/123 243/124
f 244/121 243/122 247/123
f 244/121 247/123 248/124
f 245/121 246/122 242/123
f 245/121 242/123 241/124
f 249/125 250/126 251/127
f 249/125 251/127 252/128
f 254/125 253/126 256/127
f 254/125 256/127 255/128
f 253/125 249/126 252/127
f 253/125 252/127 256/128
f 250/125 254/126 255/127
f 250/125 255/127 251/128
f 252/125 251/126 255/127
f 252/125 255/127 256/128
f 253/125 254/126 250/127
f 253/125 250/127 249/128
f 257/129 258/130 259/131
f 257/129 259/131 260/132
f 262/129 261/130 264/131
f 262/129 264/131 263/132
f 261/129 257/130 260/131
f 261/129 260/131 264/132
f 258/129 262/130 263/131
f 258/129 263/131 259/132
f 260/129 259/130 263/131
f 260/129 263/131 264/132
f 261/129 262/130 258/131
f 261/129 258/131 257/132
f 265/133 266/134 267/135
f 265/133 267/135 268/136
f 270/133 269/134 272/135
f 270/133 272/135 271/136
f 269/133 265/134 268/135
f 269/133 268/135 272/136
f 266/133 270/134 271/135
f 266/133 271/135 267/136
f 268/133 267/134 271/135
f 268/133 271/135 272/136
f 269/133 270/134 266/135
f 269/133 266/135 265/136
f 273/137 274/138 275/139
f 273/137 275/139 276/140
f 278/137 277/138 280/139
f 278/137 280/139 279/140
f 277/137 273/138 276/139
f 277/137 276/139 280/140
f 274/137 278/138 279/139
f 274/137 279/139 275/140
f 276/137 275/138 279/139
f 276/137 279/139 280/140
f 277/137 278/138 274/139
f 277/137 274/139 273/140
f 281/141 282/142 283/143
f 281/141 283/143 284/144
f 286/141 285/142 288/143
f 286/141 288/143 287/144
f 285/141 281/142 284/143
f 285/141 284/143 288/144
f 282/141 286/142 287/143
f 282/141 287/143 283/144
f 284/141 283/142 287/143
f 284/141 287/143 288/144
f 285/141 286/142 282/143
f 285/141 282/143 281/144
f 289/145 290/146 291/147
f 289/145 291/147 292/148
f 294/145 293/146 296/147
f 294/145 296/147 295/148
f 293/145 289/146 292/147
f 293/145 292/147 296/148
f 290/145 294/146 295/147
f 290/145 295/147 291/148
f 292/145 291/146 295/147
f 292/145 295/147 296/148
f 293/145 294/146 290/147
f 293/145 290/147 289/148
f 297/149 298/150 299/151
f 297/149 299/151 300/152
f 302/149 301/150 304/151
f 302/149 304/151 303/152
f 301/149 297/150 300/151
f 301/149 300/151 304/152
f 298/149 302/150 303/151
f 298/149 303/151 299/152
f 300/149 299/150 303/151
f 300/149 303/151 304/152
f 301/149 302/150 298/151
f 301/149 298/151 297/152
f 305/153 306/154 307/155
f 305/153 307/155 308/156
f 310/153 309/154 312/155
f 310/153 312/155 311/156
f 309/153 305/154 308/155
f 309/153 308/155 312/156
f 306/153 310/154 311/155
f 306/153 311/155 307/156
f 308/153 307/154 311/155
f 308/153 311/155 312/156
f 309/153 310/154 306/155
f 309/153 306/155 305/156
f 313/157 314/158 315/159
f 313/157 315/159 316/160
f 318/157 317/158 320/159
f 318/157 320/159 319/160
f 317/157 313/158 316/159
f 317/157 316/159 320/160
f 314/157 318/158 319/159
f 314/157 319/159 315/160
f 316/157 315/158 319/159
f 316/157 319/159 320/160
f 317/157 318/158 314/159
f 317/157 314/159 313/160
f 321/161 322/162 323/163
f 321/161 323/163 324/164
f 326/161 325/162 328/163
f 326/161 328/163 327/164
f 325/161 321/162 324/163
f 325/161 324/163 328/164
f 322/161 326/162 327/163
f 322/161 327/163 323/164
f 324/161 323/162 327/163
f 324/161 327/163 328/164
f 325/161 326/162 322/163
f 325/161 322/163 321/164
f 329/165 330/166 331/167
f 329/165 331/167 332/168
f 334/165 333/166 336/167
f 334/165 336/167 335/168
f 333/165 329/166 332/167
f 333/165 332/167 336/168
f 330/165 334/166 335/167
f 330/165 335/167 331/168
f 332/165 331/166 335/167
f 332/165 335/167 336/168
f 333/165 334/166 330/167
f 333/165 330/167 329/168
f 337/169 338/170 339/171
f 337/169 339/171 340/172
f 342/169 341/170 344/171
f 342/169 344/171 343/172
f 341/169 337/170 340/171
f 341/169 340/171 344/172
f 338/169 342/170 343/171
f 338/169 343/171 339/172
f 340/169 339/170 343/171
f 340/169 343/171 344/172
f 341/169 342/170 338/171
f 341/169 338/171 337/172
f 345/173 346/174 347/175
f 345/173 347/175 348/176
f 350/173 349/174 352/175
f 350/173 352/175 351/176
f 349/173 345/174 348/175
f 349/173 348/175 352/176
f 346/173 350/174 351/175
f 346/173 351/175 347/176
f 348/173 347/174 351/175
f 348/173 351/175 352/176
f 349/173 350/174 346/175
f 349/173 346/175 345/176
f 353/177 354/178 355/179
f 353/177 355/179 356/180
f 358/177 357/178 360/179
f 358/177 360/179 359/180
f 357/177 353/178 356/179
f 357/177 356/179 360/180
f 354/177 358/178 359/179
f 354/177 359/179 355/180
f 356/177 355/178 359/179
f 356/177 359/179 360/180
f 357/177 358/178 354/179
f 357/177 354/179 353/180
f 361/181 362/182 363/183
f 361/181 363/183 364/184
f 366/181 365/182 368/183
f 366/181 368/183 367/184
f 365/181 361/182 364/183
f 365/181 364/183 368/184
f 362/181 366/182 367/183
f 362/181 367/183 363/184
f 364/181 363/182 367/183
f 364/181 367/183 368/184
f 365/181 366/182 362/183
f 365/181 362/183 361/184
f 369/185 370/186 371/187
f 369/185 371/187 372/188
f 374/185 373/186 376/187
f 374/185 376/187 375/188
f 373/185 369/186 372/187
f 373/185 372/187 376/188
f 370/185 374/186 375/187
f 370/185 375/187 371/188
f 372/185 371/186 375/187
f 372/185 375/187 376/188
f 373/185 374/186 370/187
f 373/185 370/187 369/188
f 377/189 378/190 379/191
f 377/189 379/191 380/192
f 382/189 381/190 384/191
f 382/189 384/191 383/192
f 381/189 377/190 380/191
f 381/189 380/191 384/192
f 378/189 382/190 383/191
f 378/189 383/191 379/192
f 380/189 379/190 383/191
f 380/189 383/191 384/192
f 381/189 382/190 378/191
f 381/189 378/191 377/192
f 385/193 386/194 387/195
f 385/193 387/195 388/196
f 390/193 389/194 392/195
f 390/193 392/195 391/196
f 389/193 385/194 388/195
f 389/193 388/195 392/196
f 386/193 390/194 391/195
f 386/193 391/195 387/196
f 388/193 387/194 391/195
f 388/193 391/195 392/196
f 389/193 390/194 386/195
f 389/193 386/195 385/196
f 393/197 394/198 395/199
f 393/197 395/199 396/200
f 398/197 397/198 400/199
f 398/197 400/199 399/200
f 397/197 393/198 396/199
f 397/197 396/199 400/200
f 394/197 398/198 399/199
f 394/197 399/199 395/200
f 396/197 395/198 399/199
f 396/197 399/199 400/200
f 397/197 398/198 394/199
f 397/197 394/199 393/200
f 401/201 402/202 403/203
f 401/201 403/203 404/204
f 406/201 405/202 408/203
f 406/201 408/203 407/204
f 405/201 401/202 404/203
f 405/201 404/203 408/204
f 402/201 406/202 407/203
f 402/201 407/203 403/204
f 404/201 403/202 407/203
f 404/201 407/203 408/204
f 405/201 406/202 402/203
f 405/201 402/203 401/204
f 409/205 410/206 411/207
f 409/205 411/207 412/208
f 414/205 413/206 416/207
f 414/205 416/207 415/208
f 413/205 409/206 412/207
f 413/205 412/207 416/208
f 410/205 414/206 415/207
f 410/205 415/207 411/208
f 412/205 411/206 415/207
f 412/205 415/207 416/208
f 413/205 414/206 410/207
f 413/205 410/207 409/208
f 417/209 418/210 419/211
f 417/209 419/211 420/212
f 422/209 421/210 424/211
f 422/209 424/211 423/212
f 421/209 417/210 420/211
f 421/209 420/211 424/212
f 418/209 422/210 423/211
f 418/209 423/211 419/212
f 420/209 419/210 423/211
f 420/209 423/211 424/212
f 421/209 422/210 418/211
f 421/209 418/211 417/212
f 425/213 426/214 427/215
f 425/213 427/215 428/216
f 430/213 429/214 432/215
f 430/213 432/215 431/216
f 429/213 425/214 428/215
f 429/213 428/215 432/216
f 426/213 430/214 431/215
f 426/213 431/215 427/216
f 428/213 427/214 431/215
f 428/213 431/215 432/216
f 429/213 430/214 426/215
f 429/213 426/215 425/216
f 433/217 434/218 435/219
f 433/217 435/219 436/220
f 438/217 437/218 440/219
f 438/217 440/219 439/220
f 437/217 433/218 436/219
f 437/217 436/219 440/220
f 434/217 438/218 439/219
f 434/217 439/219 435/220
f 436/217 435/218 439/219
f 436/217 439/219 440/220
f 437/217 438/218 434/219
f 437/217 434/219 433/220
f 441/221 442/222 443/223
f 441/221 443/223 444/224
f 446/221 445/222 448/223
f 446/221 448/223 447/224
f 445/221 441/222 444/223
f 445/221 444/223 448/224
f 442/221 446/222 447/223
f 442/221 447/223 443/224
f 444/221 443/222 447/223
f 444/221 447/223 448/224
f 445/221 446/222 442/223
f 445/221 442/223 441/224
f 449/225 450/226 451/227
f 449/225 451/227 452/228
f 454/225 453/226 456/227
f 454/225 456/227 455/228
f 453/225 449/226 452/227
f 453/225 452/227 456/228
f 450/225 454/226 455/227
f 450/225 455/227 451/228
f 452/225 451/226 455/227
f 452/225 455/227 456/228
f 453/225 454/226 450/227
f 453/225 450/227 449/228
f 457/229 458/230 459/231
f 457/229 459/231 460/232
f 462/229 461/230 464/231
f 462/229 464/231 463/232
f 461/229 457/230 460/231
f 461/229 460/231 464/232
f 458/229 462/230 463/231
f 458/229 463/231 459/232
f 460/229 459/230 463/231
f 460/229 463/231 464/232
f 461/229 462/230 458/231
f 461/229 458/231 457/232
f 465/233 466/234 467/235
f 465/233 467/235 468/236
f 470/233 469/234 472/235
f 470/233 472/235 471/236
f 469/233 465/234 468/235
f 469/233 468/235 472/236
f 466/233 470/234 471/235
f 466/233 471/235 467/236
f 468/233 467/234 471/235
f 468/233 471/235 472/236
f 469/233 470/234 466/235
f 469/233 466/235 465/236
f 473/237 474/238 475/239
f 473/237 475/239 476/240
f 478/237 477/238 480/239
f 478/237 480/239 479/240
f 477/237 473/238 476/239
f 477/237 476/239 480/240
f 474/237 478/238 479/239
f 474/237 479/239 475/240
f 476/237 475/238 479/239
f 476/237 479/239 480/240
f 477/237 478/238 474/239
f 477/237 474/239 473/240
f 481/241 482/242 483/243
f 481/241 483/243 484/244
f 486/241 485/242 488/243
f 486/241 488/243 487/244
f 485/241 481/242 484/243
f 485/241 484/243 488/244
f 482/241 486/242 487/243
f 482/241 487/243 483/244
f 484/241 483/242 487/243
f 484/241 487/243 488/244
f 485/241 486/242 482/243
f 485/241 482/243 481/244
f 489/245 490/246 491/247
f 489/245 491/247 492/248
f 494/245 493/246 496/247
f 494/245 496/247 495/248
f 493/245 489/246 492/247
f 493/245 492/247 496/248
f 490/245 494/246 495/247
f 490/245 495/247 491/248
f 492/245 491/246 495/247
f 492/245 495/247 496/248
f 493/245 494/246 490/247
f 493/245 490/247 489/248
f 497/249 498/250 499/251
f 497/249 499/251 500/252
f 502/249 501/250 504/251
f 502/249 504/251 503/252
f 501/249 497/250 500/251
f 501/249 500/251 504/252
f 498/249 502/250 503/251
f 498/249 503/251 499/252
f 500/249 499/250 503/251
f 500/249 503/251 504/252
f 501/249 502/250 498/251
f 501/249 498/251 497/252
f 505/253 506/254 507/255
f 505/253 507/255 508/256
f 510/253 509/254 512/255
f 510/253 512/255 511/256
f 509/253 505/254 508/255
f 509/253 508/255 512/256
f 506/253 510/254 511/255
f 506/253 511/255 507/256
f 508/253 507/254 511/255
f 508/253 511/255 512/256
f 509/253 510/254 506/255
f 509/253 506/255 505/256
f 513/257 514/258 515/259
f 513/257 515/259 516/260
f 518/257 517/258 520/259
f 518/257 520/259 519/260
f 517/257 513/258 516/259
f 517/257 516/259 520/260
f 514/257 518/258 519/259
f 514/257 519/259 515/260
f 516/257 515/258 519/259
f 516/257 519/259 520/260
f 517/257 518/258 514/259
f 517/257 514/259 513/260
f 521/261 522/262 523/263
f 521/261 523/263 524/264
f 526/261 525/262 528/263
f 526/261 528/263 527/264
f 525/261 521/262 524/263
f 525/261 524/263 528/264
f 522/261 526/262 527/263
f 522/261 527/263 523/264
f 524/261 523/262 527/263
f 524/261 527/263 528/264
f 525/261 526/262 522/263
f 525/261 522/263 521/264
f 529/265 530/266 531/267
f 529/265 531/267 532/268
f 534/265 533/266 536/267
f 534/265 536/267 535/268
f 533/265 529/266 532/267
f 533/265 532/267 536/268
f 530/265 534/266 535/267
f 530/265 535/267 531/268
f 532/265 531/266 535/267
f 532/265 535/267 536/268
f 533/265 534/266 530/267
f 533/265 530/267 529/268
f 537/269 538/270 539/271
f 537/269 539/271 540/272
f 542/269 541/270 544/271
f 542/269 544/271 543/272
f 541/269 537/270 540/271
f 541/269 540/271 544/272
f 538/269 542/270 543/271
f 538/269 543/271 539/272
f 540/269 539/270 543/271
f 540/269 543/271 544/272
f 541/269 542/270 538/271
f 541/269 538/271 537/272
f 545/273 546/274 547/275
f 545/273 547/275 548/276
f 550/273 549/274 552/275
f 550/273 552/275 551/276
f 549/273 545/274 548/275
f 549/273 548/275 552/276
f 546/273 550/274 551/275
f 546/273 551/275 547/276
f 548/273 547/274 551/275
f 548/273 551/275 552/276
f 549/273 550/274 546/275
f 549/273 546/275 545/276
f 553/277 554/278 555/279
f 553/277 555/279 556/280
f 558/277 557/278 560/279
f 558/277 560/279 559/280
f 557/277 553/278 556/279
f 557/277 556/279 560/280
f 554/277 558/278 559/279
f 554/277 559/279 555/280
f 556/277 555/278 559/279
f 556/277 559/279 560/280
f 557/277 558/278 554/279
f 557/277 554/279 553/280
f 561/281 562/282 563/283
f 561/281 563/283 564/284
f 566/281 565/282 568/283
f 566/281 568/283 567/284
f 565/281 561/282 564/283
f 565/281 564/283 568/284
f 562/281 566/282 567/283
f 562/281 567/283 563/284
f 564/281 563/282 567/283
f 564/281 567/283 568/284
f 565/281 566/282 562/283
f 565/281 562/283 561/284
f 569/285 570/286 571/287
f 569/285 571/287 572/288
f 574/285 573/286 576/287
f 574/285 576/287 575/288
f 573/285 569/286 572/287
f 573/285 572/287 576/288
f 570/285 574/286 575/287
f 570/285 575/287 571/288
f 572/285 571/286 575/287
f 572/285 575/287 576/288
f 573/285 574/286 570/287
f 573/285 570/287 569/288
f 577/289 578/290 579/291
f 577/289 579/291 580/292
f 582/289 581/290 584/291
f 582/289 584/291 583/292
f 581/289 577/290 580/291
f 581/289 580/291 584/292
f 578/289 582/290 583/291
f 578/289 583/291 579/292
f 580/289 579/290 583/291
f 580/289 583/291 584/292
f 581/289 582/290 578/291
f 581/289 578/291 577/292
f 585/293 586/294 587/295
f 585/293 587/295 588/296
f 590/293 589/294 592/295
f 590/293 592/295 591/296
f 589/293 585/294 588/295
f 589/293 588/295 592/296
f 586/293 590/294 591/295
f 586/293 591/295 587/296
f 588/293 587/294 591/295
f 588/293 591/295 592/296
f 589/293 590/294 586/295
f 589/293 586/295 585/296
f 593/297 594/298 595/299
f 593/297 595/299 596/300
f 598/297 597/298 600/299
f 598/297 600/299 599/300
f 597/297 593/298 596/299
f 597/297 596/299 600/300
f 594/297 598/298 599/299
f 594/297 599/299 595/300
f 596/297 595/298 599/299
f 596/297 599/299 600/300
f 597/297 598/298 594/299
f 597/297 594/299 593/300
f 601/301 602/302 603/303
f 601/301 603/303 604/304
f 606/301 605/302 608/303
f 606/301 608/303 607/304
f 605/301 601/302 604/303
f 605/301 604/303 608/304
f 602/301 606/302 607/303
f 602/301 607/303 603/304
f 604/301 603/302 607/303
f 604/301 607/303 608/304
f 605/301 606/302 602/303
f 605/301 602/303 601/304
f 609/305 610/306 611/307
f 609/305 611/307 612/308
f 614/305 613/306 616/307
f 614/305 616/307 615/308
f 613/305 609/306 612/307
f 613/305 612/307 616/308
f 610/305 614/306 615/307
f 610/305 615/307 611/308
f 612/305 611/306 615/307
f 612/305 615/307 616/308
f 613/305 614/306 610/307
f 613/305 610/307 609/308
f 617/309 618/310 619/311
f 617/309 619/311 620/312
f 622/309 621/310 624/311
f 622/309 624/311 623/312
f 621/309 617/310 620/311
f 621/309 620/311 624/312
f 618/309 622/310 623/311
f 618/309 623/311 619/312
f 620/309 619/310 623/311
f 620/309 623/311 624/312
f 621/309 622/310 618/311
f 621/309 618/311 617/312
f 625/313 626/314 627/315
f 625/313 627/315 628/316
f 630/313 629/314 632/315
f 630/313 632/315 631/316
f 629/313 625/314 628/315
f 629/313 628/315 632/316
f 626/313 630/314 631/315
f 626/313 631/315 627/316
f 628/313 627/314 631/315
f 628/313 631/315 632/316
f 629/313 630/314 626/315
f 629/313 626/315 625/316
f 633/317 634/318 635/319
f 633/317 635/319 636/320
f 638/317 637/318 640/319
f 638/317 640/319 639/320
f 637/317 633/318 636/319
f 637/317 636/319 640/320
f 634/317 638/318 639/319
f 634/317 639/319 635/320
f 636/317 635/318 639/319
f 636/317 639/319 640/320
f 637/317 638/318 634/319
f 637/317 634/319 633/320
f 641/321 642/322 643/323
f 641/321 643/323 644/324
f 646/321 645/322 648/323
f 646/321 648/323 647/324
f 645/321 641/322 644/323
f 645/321 644/323 648/324
f 642/321 646/322 647/323
f 642/321 647/323 643/324
f 644/321 643/322 647/323
f 644/321 647/323 648/324
f 645/321 646/322 642/323
f 645/321 642/323 641/324
f 649/325 650/326 651/327
f 649/325 651/327 652/328
f 654/325 653/326 656/327
f 654/325 656/327 655/328
f 653/325 649/326 652/327
f 653/325 652/327 656/328
f 650/325 654/326 655/327
f 650/325 655/327 651/328
f 652/325 651/326 655/327
f 652/325 655/327 656/328
f 653/325 654/326 650/327
f 653/325 650/327 649/328
f 657/329 658/330 659/331
f 657/329 659/331 660/332
f 662/329 661/330 664/331
f 662/329 664/331 663/332
f 661/329 657/330 660/331
f 661/329 660/331 664/332
f 658/329 662/330 663/331
f 658/329 663/331 659/332
f 660/329 659/330 663/331
f 660/329 663/331 664/332
f 661/329 662/330 658/331
f 661/329 658/331 657/332
f 665/333 666/334 667/335
f 665/333 667/335 668/336
f 670/333 669/334 672/335
f 670/333 672/335 671/336
f 669/333 665/334 668/335
f 669/333 668/335 672/336
f 666/333 670/334 671/335
f 666/333 671/335 667/336
f 668/333 667/334 671/335
f 668/333 671/335 672/336
f 669/333 670/334 666/335
f 669/333 666/335 665/336
f 673/337 674/338 675/339
f 673/337 675/339 676/340
f 678/337 677/338 680/339
f 678/337 680/339 679/340
f 677/337 673/338 676/339
f 677/337 676/339 680/340
f 674/337 678/338 679/339
f 674/337 679/339 675/340
f 676/337 675/338 679/339
f 676/337 679/339 680/340
f 677/337 678/338 674/339
f 677/337 674/339 673/340
f 681/341 682/342 683/343
f 681/341 683/343 684/344
f 686/341 685/342 688/343
f 686/341 688/343 687/344
f 685/341 681/342 684/343
f 685/341 684/343 688/344
f 682/341 686/342 687/343
f 682/341 687/343 683/344
f 684/341 683/342 687/343
f 684/341 687/343 688/344
f 685/341 686/342 682/343
f 685/341 682/343 681/344
f 689/345 690/346 691/347
f 689/345 691/347 692/348
f 694/345 693/346 696/347
f 694/345 696/347 695/348
f 693/345 689/346 692/347
f 693/345 692/347 696/348
f 690/345 694/346 695/347
f 690/345 695/347 691/348
f 692/345 691/346 695/347
f 692/345 695/347 696/348
f 693/345 694/346 690/347
f 693/345 690/347 689/348
f 697/349 698/350 699/351
f 697/349 699/351 700/352
f 702/349 701/350 704/351
f 702/349 704/351 703/352
f 701/349 697/350 700/351
f 701/349 700/351 704/352
f 698/349 702/350 703/351
f 698/349 703/351 699/352
f 700/349 699/350 703/351
f 700/349 703/351 704/352
f 701/349 702/350 698/351
f 701/349 698/351 697/352
f 705/353 706/354 707/355
f 705/353 707/355 708/356
f 710/353 709/354 712/355
f 710/353 712/355 711/356
f 709/353 705/354 708/355
f 709/353 708/355 712/356
f 706/353 710/354 711/355
f 706/353 711/355 707/356
f 708/353 707/354 711/355
f 708/353 711/355 712/356
f 709/353 710/354 706/355
f 709/353 706/355 705/356
f 713/357 714/358 715/359
f 713/357 715/359 716/360
f 718/357 717/358 720/359
f 718/357 720/359 719/360
f 717/357 713/358 716/359
f 717/357 716/359 720/360
f 714/357 718/358 719/359
f 714/357 719/359 715/360
f 716/357 715/358 719/359
f 716/357 719/359 720/360
f 717/357 718/358 714/359
f 717/357 714/359 713/360
f 721/361 722/362 723/363
f 721/361 723/363 724/364
f 726/361 725/362 728/363
f 726/361 728/363 727/364
f 725/361 721/362 724/363
f 725/361 724/363 728/364
f 722/361 726/362 727/363
f 722/361 727/363 723/364
f 724/361 723/362 727/363
f 724/361 727/363 728/364
f 725/361 726/362 722/363
f 725/361 722/363 721/364
f 729/365 730/366 731/367
f 729/365 731/367 732/368
f 734/365 733/366 736/367
f 734/365 736/367 735/368
f 733/365 729/366 732/367
f 733/365 732/367 736/368
f 730/365 734/366 735/367
f 730/365 735/367 731/368
f 732/365 731/366 735/367
f 732/365 735/367 736/368
f 733/365 734/366 730/367
f 733/365 730/367 729/368
f 737/369 738/370 739/371
f 737/369 739/371 740/372
f 742/369 741/370 744/371
f 742/369 744/371 743/372
f 741/369 737/370 740/371
f 741/369 740/371 744/372
f 738/369 742/370 743/371
f 738/369 743/371 739/372
f 740/369 739/370 743/371
f 740/369 743/371 744/372
f 741/369 742/370 738/371
f 741/369 738/371 737/372
f 745/373 746/374 747/375
f 745/373 747/375 748/376
f 750/373 749/374 752/375
f 750/373 752/375 751/376
f 749/373 745/374 748/375
f 749/373 748/375 752/376
f 746/373 750/374 751/375
f 746/373 751/375 747/376
f 748/373 747/374 751/375
f 748/373 751/375 752/376
f 749/373 750/374 746/375
f 749/373 746/375 745/376
f 753/377 754/378 755/379
f 753/377 755/379 756/380
f 758/377 757/378 760/379
f 758/377 760/379 759/380
f 757/377 753/378 756/379
f 757/377 756/379 760/380
f 754/377 758/378 759/379
f 754/377 759/379 755/380
f 756/377 755/378 759/379
f 756/377 759/379 760/380
f 757/377 758/378 754/379
f 757/377 754/379 753/380
f 761/381 762/382 763/383
f 761/381 763/383 764/384
f 766/381 765/382 768/383
f 766/381 768/383 767/384
f 765/381 761/382 764/383
f 765/381 764/383 768/384
f 762/381 766/382 767/383
f 762/381 767/383 763/384
f 764/381 763/382 767/383
f 764/381 767/383 768/384
f 765/381 766/382 762/383
f 765/381 762/383 761/384
f 769/385 770/386 771/387
f 769/385 771/387 772/388
f 774/385 773/386 776/387
f 774/385 776/387 775/388
f 773/385 769/386 772/387
f 773/385 772/387 776/388
f 770/385 774/386 775/387
f 770/385 775/387 771/388
f 772/385 771/386 775/387
f 772/385 775/387 776/388
f 773/385 774/386 770/387
f 773/385 770/387 769/388
f 777/389 778/390 779/391
f 777/389 779/391 780/392
f 782/389 781/390 784/391
f 782/389 784/391 783/392
f 781/389 777/390 780/391
f 781/389 780/391 784/392
f 778/389 782/390 783/391
f 778/389 783/391 779/392
f 780/389 779/390 783/391
f 780/389 783/391 784/392
f 781/389 782/390 778/391
f 781/389 778/391 777/392
f 785/393 786/394 787/395
f 785/393 787/395 788/396
f 790/393 789/394 792/395
f 790/393 792/395 791/396
f 789/393 785/394 788/395
f 789/393 788/395 792/396
f 786/393 790/394 791/395
f 786/393 791/395 787/396
f 788/393 787/394 791/395
f 788/393 791/395 792/396
f 789/393 790/394 786/395
f 789/393 786/395 785/396
f 793/397 794/398 795/399
f 793/397 795/399 796/400
f 798/397 797/398 800/399
f 798/397 800/399 799/400
f 797/397 793/398 796/399
f 797/397 796/399 800/400
f 794/397 798/398 799/399
f 794/397 799/399 795/400
f 796/397 795/398 799/399
f 796/397 799/399 800/400
f 797/397 798/398 794/399
f 797/397 794/399 793/400
f 801/401 802/402 803/403
f 801/401 803/403 804/404
f 806/401 805/402 808/403
f 806/401 808/403 807/404
f 805/401 801/402 804/403
f 805/401 804/403 808/404
f 802/401 806/402 807/403
f 802/401 807/403 803/404
f 804/401 803/402 807/403
f 804/401 807/403 808/404
f 805/401 806/402 802/403
f 805/401 802/403 801/404
f 809/405 810/406 811/407
f 809/405 811/407 812/408
f 814/405 813/406 816/407
f 814/405 816/407 815/408
f 813/405 809/406 812/407
f 813/405 812/407 816/408
f 810/405 814/406 815/407
f 810/405 815/407 811/408
f 812/405 811/406 815/407
f 812/405 815/407 816/408
f 813/405 814/406 810/407
f 813/405 810/407 809/408
f 817/409 818/410 819/411
f 817/409 819/411 820/412
f 822/409 821/410 824/411
f 822/409 824/411 823/412
f 821/409 817/410 820/411
f 821/409 820/411 824/412
f 818/409 822/410 823/411
f 818/409 823/411 819/412
f 820/409 819/410 823/411
f 820/409 823/411 824/412
f 821/409 822/410 818/411
f 821/409 818/411 817/412
f 825/413 826/414 827/415
f 825/413 827/415 828/416
f 830/413 829/414 832/415
f 830/413 832/415 831/416
f 829/413 825/414 828/415
f 829/413 828/415 832/416
f 826/413 830/414 831/415
f 826/413 831/415 827/416
f 828/413 827/414 831/415
f 828/413 831/415 832/416
f 829/413 830/414 826/415
f 829/413 826/415 825/416
f 833/417 834/418 835/419
f 833/417 835/419 836/420
f 838/417 837/418 840/419
f 838/417 840/419 839/420
f 837/417 833/418 836/419
f 837/417 836/419 840/420
f 834/417 838/418 839/419
f 834/417 839/419 835/420
f 836/417 835/418 839/419
f 836/417 839/419 840/420
f 837/417 838/418 834/419
f 837/417 834/419 833/420
f 841/421 842/422 843/423
f 841/421 843/423 844/424
f 846/421 845/422 848/423
f 846/421 848/423 847/424
f 845/421 841/422 844/423
f 845/421 844/423 848/424
f 842/421 846/422 847/423
f 842/421 847/423 843/424
f 844/421 843/422 847/423
f 844/421 847/423 848/424
f 845/421 846/422 842/423
f 845/421 842/423 841/424
f 849/425 850/426 851/427
f 849/425 851/427 852/428
f 854/425 853/426 856/427
f 854/425 856/427 855/428
f 853/425 849/426 852/427
f 853/425 852/427 856/428
f 850/425 854/426 855/427
f 850/425 855/427 851/428
f 852/425 851/426 855/427
f 852/425 855/427 856/428
f 853/425 854/426 850/427
f 853/425 850/427 849/428
f 857/429 858/430 859/431
f 857/429 859/431 860/432
f 862/429 861/430 864/431
f 862/429 864/431 863/432
f 861/429 857/430 860/431
f 861/429 860/431 864/432
f 858/429 862/430 863/431
f 858/429 863/431 859/432
f 860/429 859/430 863/431
f 860/429 863/431 864/432
f 861/429 862/430 858/431
f 861/429 858/431 857/432
f 865/433 866/434 867/435
f 865/433 867/435 868/436
f 870/433 869/434 872/435
f 870/433 872/435 871/436
f 869/433 865/434 868/435
f 869/433 868/435 872/436
f 866/433 870/434 871/435
f 866/433 871/435 867/436
f 868/433 867/434 871/435
f 868/433 871/435 872/436
f 869/433 870/434 866/435
f 869/433 866/435 865/436
f 873/437 874/438 875/439
f 873/437 875/439 876/440
f 878/437 877/438 880/439
f 878/437 880/439 879/440
f 877/437 873/438 876/439
f 877/437 876/439 880/440
f 874/437 878/438 879/439
f 874/437 879/439 875/440
f 876/437 875/438 879/439
f 876/437 879/439 880/440
f 877/437 878/438 874/439
f 877/437 874/439 873/440
f 881/441 882/442 883/443
f 881/441 883/443 884/444
f 886/441 885/442 888/443
f 886/441 888/443 887/444
f 885/441 881/442 884/443
f 885/441 884/443 888/444
f 882/441 886/442 887/443
f 882/441 887/443 883/444
f 884/441 883/442 887/443
f 884/441 887/443 888/444
f 885/441 886/442 882/443
f 885/441 882/443 881/444
f 889/445 890/446 891/447
f 889/445 891/447 892/448
f 894/445 893/446 896/447
f 894/445 896/447 895/448
f 893/445 889/446 892/447
f 893/445 892/447 896/448
f 890/445 894/446 895/447
f 890/445 895/447 891/448
f 892/445 891/446 895/447
f 892/445 895/447 896/448
f 893/445 894/446 890/447
f 893/445 890/447 889/448
f 897/449 898/450 899/451
f 897/449 899/451 900/452
f 902/449 901/450 904/451
f 902/449 904/451 903/452
f 901/449 897/450 900/451
f 901/449 900/451 904/452
f 898/449 902/450 903/451
f 898/449 903/451 899/452
f 900/449 899/450 903/451
f 900/449 903/451 904/452
f 901/449 902/450 898/451
f 901/449 898/451 897/452
f 905/453 906/454 907/455
f 905/453 907/455 908/456
f 910/453 909/454 912/455
f 910/453 912/455 911/456
f 909/453 905/454 908/455
f 909/453 908/455 912/456
f 906/453 910/454 911/455
f 906/453 911/455 907/456
f 908/453 907/454 911/455
f 908/453 911/455 912/456
f 909/453 910/454 906/455
f 909/453 906/455 905/456
f 913/457 914/458 915/459
f 913/457 915/459 916/460
f 918/457 917/458 920/459
f 918/457 920/459 919/460
f 917/457 913/458 916/459
f 917/457 916/459 920/460
f 914/457 918/458 919/459
f 914/457 919/459 915/460
f 916/457 915/458 919/459
f 916/457 919/459 920/460
f 917/457 918/458 914/459
f 917/457 914/459 913/460
f 921/461 922/462 923/463
f 921/461 923/463 924/464
f 926/461 925/462 928/463
f 926/461 928/463 927/464
f 925/461 921/462 924/463
f 925/461 924/463 928/464
f 922/461 926/462 927/463
f 922/461 927/463 923/464
f 924/461 923/462 927/463
f 924/461 927/463 928/464
f 925/461 926/462 922/463
f 925/461 922/463 921/464
f 929/465 930/466 931/467
f 929/465 931/467 932/468
f 934/465 933/466 936/467
f 934/465 936/467 935/468
f 933/465 929/466 932/467
f 933/465 932/467 936/468
f 930/465 934/466 935/467
f 930/465 935/467 931/468
f 932/465 931/466 935/467
f 932/465 935/467 936/468
f 933/465 934/466 930/467
f 933/465 930/467 929/468
